# xmcd
#
# Track frame offsets:
#	150
#	11334
#	22413
#	40414
#	53402
#	66196
#	81435
#	100019
#	122042
#	146959
#	163754
#	178330
#
# Disc length: 2526 seconds
#
# Revision: 2
# Processed by: cddbd v1.4PL0 Copyright (c) Steve Scherf et al.
# Submitted via: audiograbber 1.80
#
DISCID=a909dc0c
DTITLE=Hammy Howell - Blues and Boogie-Woogie
DYEAR=1900
DGENRE=
TTITLE0=Daddie Cool
TTITLE1=Come Back My Love
TTITLE2=Willie and the Handjive
TTITLE3=Jacknife
TTITLE4=Just Your Fool
TTITLE5=Rocking-Chair Blues
TTITLE6=Roll Over Beethoven
TTITLE7=Route 66
TTITLE8=Worried Life Blues
TTITLE9=Hoochie-Coochie Man
TTITLE10=Strut Your Stuff
TTITLE11=Hammy's Boogie
EXTD=
EXTT0=
EXTT1=
EXTT2=
EXTT3=
EXTT4=
EXTT5=
EXTT6=
EXTT7=
EXTT8=
EXTT9=
EXTT10=
EXTT11=
PLAYORDER=
